<svg width="1100" height="800" viewBox="0 0 1100 800" fill="none" xmlns="http://www.w3.org/2000/svg">
<path d="M0 192C0 85.9613 85.9613 0 192 0H1080.8C1091.4 0 1100 8.59613 1100 19.2V780.8C1100 791.404 1091.4 800 1080.8 800H19.2C8.59609 800 0 791.404 0 780.8V192Z" fill="#375DDB"/>
<g clip-path="url(#clip0_11319_23713)">
<path d="M174.655 370.782C162.848 349.107 159.518 323.817 165.311 299.824C181.728 231.957 228.33 112.842 351.669 129.708C522.8 153.133 572.545 158.989 642.761 137.022C712.977 115.054 834.383 115.08 872.415 164.813C895.469 194.959 973.344 330.088 923.612 376.937C873.88 423.787 947.687 516.413 949.939 565.637C952.19 614.862 881.193 621.193 791.964 622.69C702.735 624.186 184.116 607.145 184.116 607.145C184.116 607.145 117.629 492.474 170.289 451.513C202.875 426.182 188.287 395.82 174.655 370.782Z" fill="#F8F8FF"/>
<path d="M226.534 553.508C215.121 553.111 172.365 558.948 169.859 561.186C169.209 561.792 159.858 589.596 201.001 625.533C266.825 683.028 443.962 684.993 501.373 663.123C584.661 631.389 675.927 690.895 865.108 668.121C925.564 660.846 965.965 568.24 938.48 556.235C922.024 549.077 902.321 568.071 885.774 559.735C866.728 550.125 828.136 544.119 804.243 551.491C803.781 551.616 803.385 551.915 803.14 552.326C802.894 552.736 802.817 553.226 802.925 553.692C803.032 554.158 803.317 554.564 803.718 554.825C804.119 555.085 804.606 555.18 805.076 555.089L792.491 559.104C778.508 569.515 781.657 555.682 748.856 553.899L652.144 551.511C617.566 552.552 484.52 558.401 432.465 556.319H403.834C384.73 553.931 335.174 552.799 333.391 552.741L226.534 553.508Z" fill="#F5F5FC"/>
<path d="M265.898 411.866H295.179C295.179 411.866 304.289 413.168 304.94 419.674C305.59 426.181 304.725 510.823 304.725 510.823L363.502 510.12C363.502 510.12 369.358 512.072 369.358 518.579C369.358 525.086 364.803 527.689 364.803 527.689L275.503 527.286L265.898 411.866Z" fill="#BAC6F2"/>
<path d="M265.907 411.866C265.907 411.866 257.448 413.168 256.797 426.181C256.146 439.195 256.797 527.038 256.797 527.038L346.013 527.689C346.652 527.692 347.285 527.562 347.871 527.307C348.457 527.051 348.984 526.676 349.416 526.205C350.718 524.774 352.448 522.536 352.448 520.544C352.448 517.037 351.147 511.435 343.989 511.435C336.832 511.435 276.318 510.784 276.318 510.784L275.016 419.688C275.016 419.688 275.016 413.168 265.907 411.866Z" fill="#B1C1F2"/>
<path d="M303.267 527.467C303.267 527.467 301.692 534.846 306.898 534.846H315.357C316.007 534.846 318.779 530.942 317.068 527.689C315.357 524.435 303.273 527.461 303.273 527.461" fill="#BAC6F2"/>
<path d="M306.887 534.885L307.537 608.374H313.394L313.719 534.462L306.887 534.885Z" fill="#E9EDFA"/>
<path d="M282.824 607.074L338.784 607.724V612.93L282.824 612.279V607.074Z" fill="#E9EDFA"/>
<path d="M393.427 613.582L390.824 477.587H404.489L403.838 613.582H393.427Z" fill="white"/>
<path d="M690.801 478.237H705.767L700.561 614.231L690.801 614.882V478.237Z" fill="white"/>
<path d="M380.426 454.162L381.076 476.286L712.277 478.238L712.629 453.492L380.426 454.162Z" fill="#E9EDFA"/>
<path d="M360.25 441.799L732.444 443.1V455.463L360.901 454.813L360.25 441.799Z" fill="#BAC6F2"/>
<path d="M815.543 557.458L816.194 612.766L890.372 611.465V557.458H815.543Z" fill="#E9EDFA"/>
<path d="M874.07 611.732L874.116 557.458H869.418" fill="white"/>
<path d="M834.76 557.341C834.76 557.341 832.99 524.539 848.503 515.228C864.015 505.917 850.722 484.197 853.819 472.673C856.916 461.149 871.55 452.729 871.55 443.86C871.55 434.991 870.249 410.174 887.063 402.639C903.877 395.104 917.203 404.858 911.887 419.486C906.57 434.113 902.575 450.959 896.817 456.276C891.058 461.592 893.27 470.018 894.155 480.214C895.04 490.411 887.063 507.251 882.632 513.458C878.2 519.666 882.632 530.305 881.33 541.386C881.33 541.386 878.91 556.898 876.476 557.412C874.042 557.926 834.76 557.341 834.76 557.341Z" fill="#BAC6F2"/>
<path d="M869.405 558.349C869.405 558.349 871.357 542.733 854.068 538.334C836.779 533.936 851.595 523.583 848.134 518.111C844.672 512.639 828.346 508.63 828.346 504.446C828.346 500.262 829.83 488.433 811.031 484.854C792.233 481.275 777.391 485.908 783.325 492.858C789.259 499.807 793.736 507.823 800.145 510.348C806.555 512.873 804.102 516.855 803.113 521.729C802.123 526.602 811.025 534.58 815.977 537.527C820.928 540.475 815.977 545.531 817.46 550.801C817.46 550.801 820.161 558.174 822.874 558.421C825.587 558.668 869.405 558.349 869.405 558.349Z" fill="#BAC6F2"/>
<path d="M854.942 558.343C854.942 558.343 853.563 542.036 865.62 537.41C877.677 532.784 867.345 521.989 869.752 516.256C872.16 510.523 883.527 506.34 883.527 501.941C883.527 497.542 882.493 485.192 895.578 481.451C908.663 477.709 919.003 482.55 914.864 489.825C910.726 497.1 907.635 505.442 903.152 508.116C898.669 510.79 900.4 514.948 901.083 520.017C901.766 525.086 895.571 533.46 892.129 536.545C888.687 539.629 892.129 544.919 891.095 550.424C891.095 550.424 889.214 558.134 887.327 558.388C885.44 558.642 854.942 558.343 854.942 558.343Z" fill="#BAC6F2"/>
<path d="M437.512 243.853L437.993 368.603L785.169 368.121V244.822L437.512 243.853Z" fill="white"/>
<path d="M499.648 282.894V298.25L641.824 297.58V282.894H499.648Z" fill="#BAC6F2"/>
<path d="M499.648 325.612V340.968L641.824 340.298V325.612H499.648Z" fill="#BAC6F2"/>
<path d="M475.596 303.605C481.493 303.605 486.274 298.824 486.274 292.927C486.274 287.03 481.493 282.249 475.596 282.249C469.699 282.249 464.918 287.03 464.918 292.927C464.918 298.824 469.699 303.605 475.596 303.605Z" fill="#BAC6F2"/>
<path d="M475.596 343.487C481.493 343.487 486.274 338.706 486.274 332.809C486.274 326.912 481.493 322.131 475.596 322.131C469.699 322.131 464.918 326.912 464.918 332.809C464.918 338.706 469.699 343.487 475.596 343.487Z" fill="#BAC6F2"/>
<path d="M765.036 299.694H680.629V340.87H765.036V299.694Z" fill="#E9EDFA"/>
<path d="M679.316 338.906C679.316 338.906 685.888 324.512 692.142 326.081C698.395 327.649 699.95 334.214 704.654 331.397C709.359 328.579 712.397 317.257 716.959 315.487C723.466 312.956 725.613 315.748 734.378 320.758C743.143 325.768 746.864 324.662 750.476 320.966C753.775 317.583 759.911 308.401 766.704 304.315" stroke="#BAC6F2" stroke-width="1.95207" stroke-linecap="round" stroke-linejoin="round"/>
<path d="M410.466 245.466H284.883V364.848H410.466V245.466Z" fill="white"/>
<path d="M346.024 350.227C363.967 350.227 378.513 335.681 378.513 317.738C378.513 299.795 363.967 285.249 346.024 285.249C328.081 285.249 313.535 299.795 313.535 317.738C313.535 335.681 328.081 350.227 346.024 350.227Z" stroke="#BAC6F2" stroke-width="0.65069" stroke-linecap="round" stroke-linejoin="round"/>
<path d="M325.086 255.774H293.137V263.328H325.086V255.774Z" fill="#BAC6F2"/>
<path d="M325.086 267.623H293.137V275.177H325.086V267.623Z" fill="#BAC6F2"/>
</g>
<g clip-path="url(#clip1_11319_23713)">
<path d="M285.484 303.198L302.424 308.768V284.378H287.054L285.484 303.198Z" fill="#EFA4A7"/>
<path d="M300.325 291.128C309.648 291.128 317.205 283.571 317.205 274.248C317.205 264.926 309.648 257.368 300.325 257.368C291.003 257.368 283.445 264.926 283.445 274.248C283.445 283.571 291.003 291.128 300.325 291.128Z" fill="#EFA4A7"/>
<path d="M295.693 272.578C298.523 272.488 300.373 269.638 301.473 267.028C302.573 264.418 303.703 261.428 306.323 260.348C308.463 259.468 312.243 265.418 313.943 263.828C315.703 262.178 313.983 253.698 312.113 252.168C310.243 250.638 307.683 250.348 305.273 250.238C299.393 249.968 293.473 250.438 287.703 251.648C284.133 252.388 280.463 253.508 277.893 256.088C274.633 259.358 273.803 264.298 273.563 268.908C273.323 273.628 273.593 278.568 275.893 282.698C278.193 286.828 282.993 289.878 287.593 288.818C288.053 286.318 287.593 283.748 287.403 281.208C287.223 278.668 287.403 275.928 288.963 273.898C290.523 271.868 293.823 271.078 295.633 272.868" fill="#36344E"/>
<path d="M274.925 278.428C273.235 277.188 271.215 276.158 269.135 276.408C266.885 276.678 264.995 278.528 264.415 280.718C263.835 282.908 264.485 285.318 265.875 287.108C267.265 288.898 269.325 290.078 271.515 290.668C272.775 291.008 274.165 291.148 275.365 290.638C277.145 289.878 278.095 287.608 277.405 285.798" fill="#36344E"/>
<path d="M306.944 574.558H291.074V597.068H306.944V574.558Z" fill="#EFA4A7"/>
<path d="M322.402 610.698C324.072 610.698 325.552 610.658 326.672 610.558C330.892 610.168 334.912 607.058 336.932 605.238C337.842 604.418 338.132 603.118 337.662 601.998C337.322 601.188 336.642 600.588 335.802 600.348L324.662 597.168L306.622 584.998L306.422 585.358C306.342 585.488 304.572 588.678 303.982 590.838C303.752 591.658 303.812 592.338 304.162 592.868C304.402 593.238 304.732 593.448 305.002 593.568C304.672 593.908 303.652 594.598 300.502 595.108C295.902 595.838 294.932 591.068 294.892 590.868L294.862 590.708L294.722 590.618C292.532 589.208 291.182 588.568 290.722 588.708C290.432 588.798 289.942 588.938 288.642 601.928C288.512 602.338 287.592 605.328 288.222 608.178C288.902 611.288 302.482 610.218 305.192 609.968C305.272 609.968 315.442 610.698 322.402 610.698Z" fill="#36344E"/>
<path d="M245.892 556.864L233.98 575.964L247.446 584.362L259.358 565.262L245.892 556.864Z" fill="#EFA4A7"/>
<path d="M263.774 607.608C265.634 607.608 267.344 607.388 268.564 607.168C269.764 606.958 270.704 606.008 270.894 604.798C271.034 603.938 270.774 603.068 270.194 602.418L262.424 593.828L253.564 573.958L253.204 574.158C253.064 574.228 249.874 575.998 248.234 577.518C247.604 578.098 247.294 578.708 247.304 579.338C247.304 579.778 247.474 580.128 247.644 580.378C247.184 580.498 245.954 580.538 243.014 579.298C238.724 577.488 240.424 572.928 240.504 572.738L240.564 572.588L240.494 572.438C239.384 570.078 238.584 568.828 238.114 568.698C237.824 568.618 237.334 568.488 229.354 578.808C229.024 579.078 226.664 581.138 225.684 583.888C224.614 586.888 236.704 593.158 239.134 594.388C239.204 594.448 251.864 603.648 257.054 606.258C259.114 607.298 261.554 607.618 263.774 607.618L263.774 607.608Z" fill="#36344E"/>
<path d="M279.392 386.288H323.822L327.852 427.618L310.212 580.328H287.532L296.602 492.128L259.812 571.758L239.652 557.648L268.382 483.308C268.382 483.308 258.122 418.548 266.182 402.418C274.242 386.288 279.392 386.288 279.392 386.288Z" fill="#36344E"/>
<path d="M257.293 388.808H327.853L306.683 297.578H275.943L257.293 388.808Z" fill="#536DFE"/>
<path d="M345.375 295.788C346.505 290.238 344.435 285.168 340.775 284.468C337.105 283.768 333.225 287.698 332.095 293.248C331.615 295.458 331.685 297.748 332.315 299.938L327.855 323.508L339.385 325.328L342.555 301.898C343.985 300.108 344.955 298.018 345.375 295.788Z" fill="#EFA4A7"/>
<path d="M276.694 297.578H303.804L322.084 334.128L328.974 306.738L344.124 308.348C344.124 308.348 340.544 361.868 324.874 360.058C309.204 358.248 272.674 310.028 276.694 297.578Z" fill="#536DFE"/>
<path d="M246.414 436.598C245.284 442.148 247.354 447.218 251.014 447.918C254.684 448.618 258.564 444.688 259.694 439.138C260.174 436.928 260.104 434.638 259.474 432.448L263.934 408.878L252.404 407.058L249.234 430.488C247.804 432.278 246.834 434.368 246.414 436.598Z" fill="#EFA4A7"/>
<path d="M292.142 297.578C292.142 297.578 276.732 296.928 275.933 297.578C271.732 301.018 247.062 424.918 247.062 424.918H262.683L292.133 297.578H292.142Z" fill="#536DFE"/>
<path d="M418.67 610.724C418.67 611.384 418.14 611.914 417.48 611.914H170.19C169.53 611.914 169 611.384 169 610.724C169 610.064 169.53 609.534 170.19 609.534H417.48C418.14 609.534 418.67 610.064 418.67 610.724Z" fill="#CACACA"/>
<path d="M370.604 389.896H377.276V413.512H370.604V389.896ZM370.604 381.256H377.276V387.112H370.604V381.256ZM392.262 407.416C392.262 407.896 392.422 408.296 392.742 408.616C393.062 408.904 393.446 409.048 393.894 409.048H399.27V413.464H392.646C391.654 413.464 390.726 413.272 389.862 412.888C389.03 412.504 388.278 412.008 387.606 411.4C386.966 410.76 386.454 410.024 386.07 409.192C385.718 408.328 385.542 407.416 385.542 406.456V394.36H380.694V389.944H385.542V381.304H392.262V389.944H399.27V394.36H392.262V407.416ZM409.723 394.36C409.275 394.36 408.891 394.52 408.571 394.84C408.283 395.16 408.139 395.544 408.139 395.992V397.768C408.139 398.216 408.283 398.6 408.571 398.92C408.891 399.208 409.275 399.352 409.723 399.352H418.795C419.755 399.352 420.651 399.544 421.483 399.928C422.347 400.28 423.083 400.776 423.691 401.416C424.331 402.024 424.827 402.76 425.179 403.624C425.563 404.456 425.755 405.352 425.755 406.312V406.6C425.755 407.56 425.563 408.456 425.179 409.288C424.827 410.12 424.331 410.856 423.691 411.496C423.083 412.136 422.347 412.632 421.483 412.984C420.651 413.336 419.755 413.512 418.795 413.512H401.179V409.096H417.451C417.899 409.096 418.267 408.952 418.555 408.664C418.875 408.344 419.035 407.96 419.035 407.512V405.448C419.035 405 418.875 404.616 418.555 404.296C418.267 403.976 417.899 403.816 417.451 403.816H408.379C407.419 403.816 406.507 403.64 405.643 403.288C404.811 402.904 404.075 402.408 403.435 401.8C402.827 401.16 402.331 400.424 401.947 399.592C401.595 398.728 401.419 397.832 401.419 396.904C401.419 395.944 401.595 395.048 401.947 394.216C402.331 393.352 402.827 392.616 403.435 392.008C404.075 391.368 404.811 390.872 405.643 390.52C406.507 390.136 407.419 389.944 408.379 389.944H425.371V394.36H409.723ZM436.207 394.36C435.759 394.36 435.375 394.52 435.055 394.84C434.767 395.16 434.623 395.544 434.623 395.992V397.768C434.623 398.216 434.767 398.6 435.055 398.92C435.375 399.208 435.759 399.352 436.207 399.352H445.279C446.239 399.352 447.135 399.544 447.967 399.928C448.831 400.28 449.567 400.776 450.175 401.416C450.815 402.024 451.311 402.76 451.663 403.624C452.047 404.456 452.239 405.352 452.239 406.312V406.6C452.239 407.56 452.047 408.456 451.663 409.288C451.311 410.12 450.815 410.856 450.175 411.496C449.567 412.136 448.831 412.632 447.967 412.984C447.135 413.336 446.239 413.512 445.279 413.512H427.663V409.096H443.935C444.383 409.096 444.751 408.952 445.039 408.664C445.359 408.344 445.519 407.96 445.519 407.512V405.448C445.519 405 445.359 404.616 445.039 404.296C444.751 403.976 444.383 403.816 443.935 403.816H434.863C433.903 403.816 432.991 403.64 432.127 403.288C431.295 402.904 430.559 402.408 429.919 401.8C429.311 401.16 428.815 400.424 428.431 399.592C428.079 398.728 427.903 397.832 427.903 396.904C427.903 395.944 428.079 395.048 428.431 394.216C428.815 393.352 429.311 392.616 429.919 392.008C430.559 391.368 431.295 390.872 432.127 390.52C432.991 390.136 433.903 389.944 434.863 389.944H451.855V394.36H436.207ZM454.148 381.256H460.868V397.672L468.02 389.896H476.18L466.724 400.264L475.172 413.464H467.828L462.404 405.016L460.868 406.744V413.512H454.148V381.256ZM485.013 407.464C485.013 407.912 485.157 408.296 485.445 408.616C485.765 408.904 486.149 409.048 486.597 409.048H494.181V389.896H500.901V415.096C500.901 416.024 500.709 416.92 500.325 417.784C499.973 418.648 499.461 419.4 498.789 420.04C498.149 420.68 497.397 421.176 496.533 421.528C495.701 421.88 494.805 422.056 493.845 422.056H478.101V417.64H492.597C493.045 417.64 493.413 417.48 493.701 417.16C494.021 416.872 494.181 416.52 494.181 416.104V413.464H485.349C484.357 413.464 483.429 413.288 482.565 412.936C481.733 412.552 480.997 412.056 480.357 411.448C479.717 410.808 479.205 410.072 478.821 409.24C478.469 408.376 478.293 407.448 478.293 406.456L478.245 389.896H484.965L485.013 407.464ZM536.356 415.144V396.328L534.532 396.04V413.032H528.772V382.36H534.532V391.144L536.356 391.432V380.296H542.5V392.536L544.66 392.92V397.816L542.5 397.432V415.144H536.356ZM559.252 402.856L558.388 404.392H564.004L570.916 415.048H563.956L557.764 405.544L552.436 415.144H545.092L552.34 402.856H545.764V398.2H553.108V388.072H546.292V383.32H553.108V380.296H559.252V383.32H564.868C565.604 383.32 566.292 383.464 566.932 383.752C567.572 384.008 568.132 384.376 568.612 384.856C569.092 385.336 569.46 385.896 569.716 386.536C570.004 387.176 570.148 387.848 570.148 388.552V398.2H570.916V402.856H559.252ZM559.252 398.2H563.476V389.56C563.476 389.144 563.332 388.792 563.044 388.504C562.756 388.216 562.404 388.072 561.988 388.072H559.252V398.2ZM606.292 385.912V387.64H617.716V395.464C617.716 396.104 617.588 396.696 617.332 397.24C617.108 397.784 616.788 398.264 616.372 398.68C615.956 399.064 615.46 399.384 614.884 399.64C614.34 399.864 613.764 399.976 613.156 399.976H606.292V408.472H599.62V399.976H588.1V387.64H599.62V385.912H587.524V381.976H599.62V380.344H606.292V381.976H608.212H618.34V385.912H613.924H606.292ZM599.62 395.752V391.816H594.724V395.752H599.62ZM606.292 391.816V395.752H609.556C609.972 395.752 610.324 395.608 610.612 395.32C610.9 395.032 611.044 394.68 611.044 394.264V391.816H606.292ZM615.124 401.56L618.004 408.472H611.092L608.212 401.56H615.124ZM587.956 408.472L590.836 401.56H597.748L594.868 408.472H587.956ZM577.012 402.712L580.516 392.392H576.964V388.072H586.612H587.428L583.924 398.488H586.612L584.644 406.504L587.908 410.68H618.676V415.048H584.548L583.012 413.176L582.58 415.048H576.964L580.372 402.856H576.964L577.012 402.712ZM577.012 380.872H583.252L586.516 386.632H580.276L577.012 380.872ZM631.828 400.888H624.82V395.944H632.692L634.564 385.384H626.404V380.44H665.236V385.384H659.668V395.944H666.82V400.888H659.668V414.952H653.236V400.888H638.26L635.812 414.952H629.38L631.828 400.888ZM639.124 395.944H653.236V385.384H640.996L639.124 395.944ZM689.236 391.048L688.276 393.496H712.804V397.864H712.66L712.804 397.912C710.916 402.456 708.18 406.056 704.596 408.712C705.94 409.224 707.38 409.608 708.916 409.864C710.452 410.12 712.116 410.296 713.908 410.392V415C710.996 415 708.308 414.776 705.844 414.328C703.412 413.848 701.14 413.048 699.028 411.928C697.108 412.76 695.028 413.448 692.788 413.992C690.548 414.536 688.164 414.936 685.636 415.192V410.152C687.172 409.928 688.612 409.672 689.956 409.384C691.332 409.064 692.628 408.696 693.844 408.28C691.412 406.04 689.108 403.144 686.932 399.592H693.508C695.204 402.12 697.076 404.168 699.124 405.736C700.596 404.808 701.908 403.704 703.06 402.424C704.212 401.144 705.236 399.64 706.132 397.912L706.18 397.864L686.548 397.912L679.924 414.856L673.444 415.144L682.9 391.048H679.78H673.828L677.332 380.488H683.284L681.364 386.344H684.724L687.028 380.488L693.508 380.248L691.108 386.344H706.276L704.596 381.64H710.932L714.244 391.048H711.268H707.908H689.236ZM750.34 399.496L753.124 387.496H758.884L756.1 399.496H750.34ZM733.828 399.496H728.068L725.476 387.496H731.236L733.828 399.496ZM762.916 406.072H745.204V414.904H738.532V406.072H720.772V404.824V401.608V401.368H738.532V385.24H722.356V384.52V381.304V380.536H761.332V381.304V384.52V385.24H745.204V401.368H762.916V401.608V404.824V406.072ZM809.14 410.2C809.14 410.84 809.012 411.432 808.756 411.976C808.532 412.52 808.212 413 807.796 413.416C807.412 413.8 806.932 414.12 806.356 414.376C805.812 414.6 805.236 414.712 804.628 414.712H777.028H770.02V410.056V402.136V401.56V397.432H809.14V397.528V402.136V410.2ZM802.132 402.136H777.028V410.056H800.644C801.06 410.056 801.412 409.912 801.7 409.624C801.988 409.336 802.132 408.968 802.132 408.52V402.136ZM769.252 395.128L778.516 380.68H785.284L779.044 390.424H800.548L795.844 382.6H802.276L810.436 396.232H804.052L803.38 395.128H776.02H771.172H769.252Z" fill="#2F2E41"/>
</g>
<defs>
<clipPath id="clip0_11319_23713">
<rect width="800" height="553.002" fill="white" transform="translate(150 123)"/>
</clipPath>
<clipPath id="clip1_11319_23713">
<rect width="762.208" height="423.914" fill="white" transform="translate(169 188)"/>
</clipPath>
</defs>
</svg>
