<svg width="1100" height="800" viewBox="0 0 1100 800" fill="none" xmlns="http://www.w3.org/2000/svg">
  <path
    d="M0 192C0 85.9613 85.9613 0 192 0H1080.8C1091.4 0 1100 8.59613 1100 19.2V780.8C1100 791.404 1091.4 800 1080.8 800H19.2C8.59609 800 0 791.404 0 780.8V192Z"
    fill="#375DDB"/>
  <g clip-path="url(#clip0_10145_4898)">
    <path
      d="M812.849 315.697C812.849 185.941 707.663 80.7524 577.909 80.7524C448.155 80.7524 342.969 185.941 342.969 315.697V514.851C342.969 644.608 448.155 749.796 577.909 749.796C707.663 749.796 812.849 644.608 812.849 514.851V315.697Z"
      fill="#F8F8FF"/>
    <path
      d="M380.859 257.596C380.859 257.596 398.745 239.108 401.879 216.999C405.013 194.89 425.03 189.645 438.712 193.849C452.394 198.053 465.044 236.347 498.771 236.146C532.499 235.946 589.281 208.582 591.383 201.215C593.485 193.849 596.648 180.195 619.798 177.014C642.949 173.832 644 151.751 677.679 151.751C711.359 151.751 770.644 157.398 775.909 159.5C781.174 161.602 806.044 165.099 811.261 194.259C811.261 194.259 815.493 206.527 808.127 241.229C800.76 275.931 852.326 298.04 864.957 298.04C877.588 298.04 914.42 375.919 873.374 442.218C832.328 508.516 837.593 533.769 794.445 507.465C751.297 481.162 755.51 508.516 751.297 481.152C747.083 453.788 726.044 468.521 719.767 453.788C713.49 439.055 735.551 409.589 720.818 403.274C706.085 396.958 669.223 408.538 661.886 370.655C654.548 332.771 609.259 378.021 630.356 412.752C651.452 447.482 607.205 421.169 607.205 442.218C607.205 463.266 581.953 480.101 594.574 495.885C607.196 511.669 639.834 600.077 538.805 597.965C437.775 595.854 494.596 615.861 473.557 617.963C452.518 620.065 440.842 591.65 407.163 591.65C373.483 591.65 257.731 585.344 260.883 534.829C264.036 484.315 294.401 493.745 293.952 449.584C293.503 405.423 242.558 354.335 319.596 307.767C396.634 261.198 380.859 257.596 380.859 257.596Z"
      fill="#B0C0F4"/>
    <path d="M370.887 140.669H207.992V521.1H370.887V140.669Z" fill="url(#paint0_linear_10145_4898)"/>
    <path
      d="M293.945 208.706C308.108 208.706 319.589 197.224 319.589 183.061C319.589 168.898 308.108 157.417 293.945 157.417C279.782 157.417 268.301 168.898 268.301 183.061C268.301 197.224 279.782 208.706 293.945 208.706Z"
      fill="#BAC5F4"/>
    <path
      d="M310.942 236.147H227.789C225.351 236.147 223.375 238.123 223.375 240.561V241.908C223.375 244.346 225.351 246.323 227.789 246.323H310.942C313.38 246.323 315.356 244.346 315.356 241.908V240.561C315.356 238.123 313.38 236.147 310.942 236.147Z"
      fill="#BAC5F4"/>
    <path
      d="M355.139 236.147H341.266C338.828 236.147 336.852 238.124 336.852 240.562V241.909C336.852 244.347 338.828 246.323 341.266 246.323H355.139C357.577 246.323 359.553 244.347 359.553 241.909V240.562C359.553 238.124 357.577 236.147 355.139 236.147Z"
      fill="#BAC5F4"/>
    <path
      d="M282.603 257.597H227.789C225.351 257.597 223.375 259.573 223.375 262.011V263.358C223.375 265.796 225.351 267.772 227.789 267.772H282.603C285.041 267.772 287.017 265.796 287.017 263.358V262.011C287.017 259.573 285.041 257.597 282.603 257.597Z"
      fill="#BAC5F4"/>
    <path
      d="M355.132 257.597H352.609C350.172 257.597 348.195 259.573 348.195 262.011V263.358C348.195 265.796 350.172 267.772 352.609 267.772H355.132C357.57 267.772 359.546 265.796 359.546 263.358V262.011C359.546 259.573 357.57 257.597 355.132 257.597Z"
      fill="#BAC5F4"/>
    <path
      d="M321.374 281.435H228.59C226.152 281.435 224.176 283.411 224.176 285.849V287.196C224.176 289.634 226.152 291.61 228.59 291.61H321.374C323.812 291.61 325.788 289.634 325.788 287.196V285.849C325.788 283.411 323.812 281.435 321.374 281.435Z"
      fill="#BAC5F4"/>
    <path
      d="M355.921 281.435H348.469C346.031 281.435 344.055 283.411 344.055 285.849V287.196C344.055 289.634 346.031 291.61 348.469 291.61H355.921C358.359 291.61 360.336 289.634 360.336 287.196V285.849C360.336 283.411 358.359 281.435 355.921 281.435Z"
      fill="#BAC5F4"/>
    <path
      d="M304.978 302.684H228.59C226.152 302.684 224.176 304.66 224.176 307.098V308.445C224.176 310.883 226.152 312.859 228.59 312.859H304.978C307.416 312.859 309.392 310.883 309.392 308.445V307.098C309.392 304.66 307.416 302.684 304.978 302.684Z"
      fill="#BAC5F4"/>
    <path
      d="M355.936 302.684H342.063C339.625 302.684 337.648 304.66 337.648 307.098V308.445C337.648 310.883 339.625 312.859 342.063 312.859H355.936C358.374 312.859 360.35 310.883 360.35 308.445V307.098C360.35 304.66 358.374 302.684 355.936 302.684Z"
      fill="#BAC5F4"/>
    <path
      d="M270.572 324.927H228.59C226.152 324.927 224.176 326.903 224.176 329.341V330.688C224.176 333.126 226.152 335.102 228.59 335.102H270.572C273.01 335.102 274.987 333.126 274.987 330.688V329.341C274.987 326.903 273.01 324.927 270.572 324.927Z"
      fill="#BAC5F4"/>
    <path
      d="M355.935 324.927H333.434C330.996 324.927 329.02 326.904 329.02 329.341V330.689C329.02 333.126 330.996 335.103 333.434 335.103H355.935C358.372 335.103 360.349 333.126 360.349 330.689V329.341C360.349 326.904 358.372 324.927 355.935 324.927Z"
      fill="#BAC5F4"/>
    <path
      d="M302.953 346.378H228.59C226.152 346.378 224.176 348.354 224.176 350.792V352.139C224.176 354.577 226.152 356.553 228.59 356.553H302.953C305.39 356.553 307.367 354.577 307.367 352.139V350.792C307.367 348.354 305.39 346.378 302.953 346.378Z"
      fill="#BAC5F4"/>
    <path
      d="M355.936 346.378H342.063C339.625 346.378 337.648 348.354 337.648 350.792V352.139C337.648 354.577 339.625 356.553 342.063 356.553H355.936C358.374 356.553 360.35 354.577 360.35 352.139V350.792C360.35 348.354 358.374 346.378 355.936 346.378Z"
      fill="#BAC5F4"/>
    <path
      d="M644.499 507.772C641.532 502.272 640.371 495.978 641.182 489.781C641.993 483.585 644.735 477.802 649.018 473.251C655.066 466.812 659.987 458.451 659.585 448.505C658.63 423.663 682.44 414.73 686.414 425.66C690.389 436.591 688.402 474.388 704.291 477.322C720.18 480.255 744.038 498.341 725.158 521.1C706.278 543.859 698.338 508.116 706.278 543.888C714.218 579.66 668.528 609.107 657.55 581.953C646.572 554.799 612.893 564.411 636.693 545.875C652.592 533.483 650.556 519.084 644.499 507.772Z"
      fill="#B0C0F4"/>
    <path d="M752.5 217.018L755.118 214.248" stroke="white" stroke-width="0.95545" stroke-miterlimit="10"
          stroke-linecap="round"/>
    <path d="M759.281 209.843C763.16 205.725 768.329 200.212 773.785 194.355" stroke="white" stroke-width="0.95545"
          stroke-miterlimit="10" stroke-linecap="round" stroke-dasharray="6.07 6.07"/>
    <path d="M775.844 192.129L778.443 189.32" stroke="white" stroke-width="0.95545" stroke-miterlimit="10"
          stroke-linecap="round"/>
    <path
      d="M778.443 194.269C782.496 194.269 785.781 190.984 785.781 186.932C785.781 182.879 782.496 179.594 778.443 179.594C774.391 179.594 771.105 182.879 771.105 186.932C771.105 190.984 774.391 194.269 778.443 194.269Z"
      fill="white"/>
    <path
      d="M744.057 232.239C748.109 232.239 751.394 228.954 751.394 224.901C751.394 220.849 748.109 217.563 744.057 217.563C740.004 217.563 736.719 220.849 736.719 224.901C736.719 228.954 740.004 232.239 744.057 232.239Z"
      fill="white"/>
    <path d="M383.164 412.256C383.164 412.256 383.537 410.985 384.444 408.663" stroke="white" stroke-width="0.95545"
          stroke-miterlimit="10" stroke-linecap="round"/>
    <path d="M387.523 401.63C402.151 371.113 459.325 283.794 642.074 258.599" stroke="white" stroke-width="0.95545"
          stroke-miterlimit="10" stroke-linecap="round" stroke-dasharray="7.67 7.67"/>
    <path d="M645.898 258.084L649.72 257.597" stroke="white" stroke-width="0.95545" stroke-miterlimit="10"
          stroke-linecap="round"/>
    <path d="M375.758 420.119C375.758 420.119 376.455 421.294 377.736 423.377" stroke="white" stroke-width="0.95545"
          stroke-miterlimit="10" stroke-linecap="round"/>
    <path d="M382 430.18C393.188 447.798 417.571 484 439.68 502.106" stroke="white" stroke-width="0.95545"
          stroke-miterlimit="10" stroke-linecap="round" stroke-dasharray="8.04 8.04"/>
    <path d="M442.855 504.609C443.897 505.393 444.938 506.129 445.97 506.807" stroke="white" stroke-width="0.95545"
          stroke-miterlimit="10" stroke-linecap="round"/>
    <path
      d="M375.769 451.821C393.885 451.821 408.57 437.136 408.57 419.02C408.57 400.905 393.885 386.22 375.769 386.22C357.654 386.22 342.969 400.905 342.969 419.02C342.969 437.136 357.654 451.821 375.769 451.821Z"
      stroke="white" stroke-width="3.8218" stroke-miterlimit="10"/>
    <path
      d="M375.763 433.133C382.95 433.133 388.776 427.307 388.776 420.12C388.776 412.933 382.95 407.106 375.763 407.106C368.576 407.106 362.75 412.933 362.75 420.12C362.75 427.307 368.576 433.133 375.763 433.133Z"
      fill="white"/>
    <path
      d="M708.48 286.518C726.596 286.518 741.281 271.833 741.281 253.718C741.281 235.602 726.596 220.917 708.48 220.917C690.365 220.917 675.68 235.602 675.68 253.718C675.68 271.833 690.365 286.518 708.48 286.518Z"
      stroke="white" stroke-width="3.8218" stroke-miterlimit="10"/>
    <path
      d="M708.482 267.839C715.669 267.839 721.495 262.013 721.495 254.826C721.495 247.639 715.669 241.812 708.482 241.812C701.295 241.812 695.469 247.639 695.469 254.826C695.469 262.013 701.295 267.839 708.482 267.839Z"
      fill="white"/>
    <path
      d="M661.58 263.835C665.633 263.835 668.918 260.55 668.918 256.497C668.918 252.444 665.633 249.159 661.58 249.159C657.527 249.159 654.242 252.444 654.242 256.497C654.242 260.55 657.527 263.835 661.58 263.835Z"
      fill="white"/>
    <path
      d="M445.971 514.154C450.023 514.154 453.309 510.868 453.309 506.816C453.309 502.763 450.023 499.478 445.971 499.478C441.918 499.478 438.633 502.763 438.633 506.816C438.633 510.868 441.918 514.154 445.971 514.154Z"
      fill="white"/>
    <path
      d="M543.521 506.816H466.856C465.637 506.816 464.648 507.805 464.648 509.023V509.692C464.648 510.911 465.637 511.899 466.856 511.899H543.521C544.74 511.899 545.728 510.911 545.728 509.692V509.023C545.728 507.805 544.74 506.816 543.521 506.816Z"
      fill="#F8F8FF"/>
    <path
      d="M543.521 521.101H466.856C465.637 521.101 464.648 522.089 464.648 523.308V523.976C464.648 525.195 465.637 526.184 466.856 526.184H543.521C544.74 526.184 545.728 525.195 545.728 523.976V523.308C545.728 522.089 544.74 521.101 543.521 521.101Z"
      fill="#F8F8FF"/>
    <path
      d="M543.521 539.101H466.856C465.637 539.101 464.648 540.089 464.648 541.308V541.976C464.648 543.195 465.637 544.184 466.856 544.184H543.521C544.74 544.184 545.728 543.195 545.728 541.976V541.308C545.728 540.089 544.74 539.101 543.521 539.101Z"
      fill="#F8F8FF"/>
    <path
      d="M514.36 553.442H466.856C465.637 553.442 464.648 554.431 464.648 555.649V556.318C464.648 557.537 465.637 558.525 466.856 558.525H514.36C515.579 558.525 516.568 557.537 516.568 556.318V555.649C516.568 554.431 515.579 553.442 514.36 553.442Z"
      fill="#F8F8FF"/>
    <path
      d="M865.755 197.451H789.09C787.871 197.451 786.883 198.439 786.883 199.658V200.327C786.883 201.546 787.871 202.534 789.09 202.534H865.755C866.974 202.534 867.962 201.546 867.962 200.327V199.658C867.962 198.439 866.974 197.451 865.755 197.451Z"
      fill="#E1E6FB"/>
    <path
      d="M865.755 211.734H789.09C787.871 211.734 786.883 212.723 786.883 213.941V214.61C786.883 215.829 787.871 216.817 789.09 216.817H865.755C866.974 216.817 867.962 215.829 867.962 214.61V213.941C867.962 212.723 866.974 211.734 865.755 211.734Z"
      fill="#E1E6FB"/>
    <path
      d="M865.755 229.735H789.09C787.871 229.735 786.883 230.723 786.883 231.942V232.611C786.883 233.83 787.871 234.818 789.09 234.818H865.755C866.974 234.818 867.962 233.83 867.962 232.611V231.942C867.962 230.723 866.974 229.735 865.755 229.735Z"
      fill="#E1E6FB"/>
    <path
      d="M836.595 244.077H789.09C787.871 244.077 786.883 245.065 786.883 246.284V246.953C786.883 248.172 787.871 249.16 789.09 249.16H836.595C837.814 249.16 838.802 248.172 838.802 246.953V246.284C838.802 245.065 837.814 244.077 836.595 244.077Z"
      fill="#E1E6FB"/>
    <path d="M453.305 506.807C453.305 506.807 454.633 507.027 457.126 507.333" stroke="#BAC5F4" stroke-width="0.95545"
          stroke-miterlimit="10"/>
    <path d="M464.555 508.143C517.104 513.15 735.377 519.437 709.36 275.367" stroke="#BAC5F4" stroke-width="0.95545"
          stroke-miterlimit="10" stroke-dasharray="7.51 7.51"/>
    <path d="M708.966 271.622C708.823 270.36 708.67 269.099 708.508 267.8" stroke="#BAC5F4" stroke-width="0.95545"
          stroke-miterlimit="10"/>
    <path
      d="M863.044 270.83C863.044 270.83 847.518 255.036 862.089 243.857C876.659 232.679 880.567 233.347 880.691 244.488C880.815 255.629 869.914 257.32 876.516 269.062C883.118 280.805 875.13 283.881 870.191 281.33C865.251 278.779 863.044 270.83 863.044 270.83Z"
      fill="#B0C0F4"/>
    <path
      d="M860.403 274.441C860.403 274.441 861.358 283.04 869.126 286.738C876.894 290.436 890.079 299.159 888.913 306.086C887.748 313.013 872.308 293.665 867.473 295.366C862.639 297.066 852.071 290.732 848.899 282.601C845.727 274.47 846.329 268.002 851.125 268.059C855.922 268.116 860.403 274.441 860.403 274.441Z"
      fill="#B0C0F4"/>
    <path
      d="M833.273 131.937H955.475C975.1 131.937 986.288 108.948 973.629 93.9096C966.253 85.1291 952.762 78.546 928.627 79.5015C928.627 79.5015 894.89 15.4864 847.624 79.4059C847.624 79.4059 808.737 75.5841 805.756 100.426L805.67 101.162C805.238 105.04 805.631 108.967 806.822 112.684C808.013 116.4 809.975 119.824 812.581 122.729C815.187 125.635 818.378 127.957 821.944 129.544C825.509 131.13 829.37 131.946 833.273 131.937Z"
      fill="#F8F8FF"/>
    <path
      d="M206.805 681.845H328.969C348.594 681.845 359.782 658.857 347.122 643.828C339.737 635.038 326.255 628.464 302.111 629.41C302.111 629.41 268.384 565.395 221.108 629.324C221.108 629.324 182.231 625.502 179.25 650.392C179.25 650.64 179.193 650.889 179.164 651.128C178.74 655.005 179.14 658.929 180.337 662.641C181.534 666.354 183.502 669.772 186.111 672.671C188.72 675.571 191.913 677.887 195.479 679.468C199.045 681.049 202.904 681.859 206.805 681.845Z"
      fill="#F8F8FF"/>
  </g>
  <g clip-path="url(#clip1_10145_4898)">
    <path
      d="M433.146 522.187C356.972 522.187 295 460.215 295 384.041C295 307.867 356.972 245.895 433.146 245.895C455.279 245.918 477.085 251.247 496.734 261.435C516.383 271.623 533.303 286.374 546.075 304.45L544.768 305.373C532.144 287.506 515.419 272.926 495.998 262.855C476.576 252.785 455.023 247.518 433.146 247.495C357.855 247.495 296.6 308.75 296.6 384.041C296.6 459.332 357.855 520.587 433.146 520.587C454.12 520.656 474.824 515.86 493.632 506.578C512.44 497.295 528.84 483.779 541.543 467.09L542.812 468.063C529.96 484.948 513.368 498.623 494.34 508.014C475.312 517.405 454.365 522.257 433.146 522.187Z"
      fill="#B0C0F4"/>
    <path
      d="M490.259 360.907C488.745 360.907 487.264 360.458 486.005 359.616C484.746 358.775 483.764 357.579 483.184 356.18C482.605 354.781 482.453 353.241 482.749 351.755C483.044 350.27 483.773 348.906 484.844 347.835C485.915 346.764 487.28 346.034 488.765 345.739C490.251 345.443 491.79 345.595 493.19 346.175C494.589 346.754 495.785 347.736 496.626 348.995C497.468 350.254 497.917 351.735 497.917 353.249C497.917 355.28 497.11 357.228 495.674 358.664C494.238 360.1 492.29 360.907 490.259 360.907Z"
      fill="#F8F8FF"/>
    <path
      d="M492.93 354.852L491.327 353.25L492.93 351.647C493 351.577 493.056 351.494 493.095 351.402C493.133 351.31 493.153 351.212 493.153 351.113C493.153 351.013 493.133 350.915 493.096 350.823C493.058 350.731 493.002 350.648 492.932 350.577C492.861 350.507 492.778 350.451 492.686 350.413C492.594 350.375 492.496 350.356 492.396 350.356C492.297 350.356 492.198 350.376 492.107 350.414C492.015 350.452 491.932 350.508 491.862 350.579L490.259 352.181L488.657 350.579C488.515 350.437 488.323 350.358 488.123 350.358C487.922 350.358 487.73 350.437 487.588 350.579C487.447 350.721 487.367 350.913 487.367 351.113C487.367 351.313 487.447 351.506 487.588 351.647L489.191 353.25L487.588 354.852C487.448 354.994 487.369 355.186 487.369 355.386C487.369 355.586 487.449 355.777 487.59 355.919C487.732 356.06 487.923 356.139 488.123 356.14C488.323 356.14 488.515 356.061 488.657 355.92L490.259 354.318L491.862 355.92C491.932 355.99 492.015 356.046 492.107 356.084C492.198 356.122 492.296 356.142 492.396 356.142C492.495 356.142 492.593 356.122 492.685 356.084C492.776 356.046 492.86 355.99 492.93 355.92C493 355.85 493.056 355.767 493.094 355.675C493.131 355.584 493.151 355.485 493.151 355.386C493.151 355.287 493.131 355.189 493.094 355.097C493.056 355.005 493 354.922 492.93 354.852Z"
      fill="#B0C0F4"/>
    <path
      d="M452.173 270.478C460.589 270.478 467.412 263.655 467.412 255.239C467.412 246.823 460.589 240 452.173 240C443.756 240 436.934 246.823 436.934 255.239C436.934 263.655 443.756 270.478 452.173 270.478Z"
      fill="white"/>
    <path
      d="M450.095 263.17C449.831 263.17 449.572 263.109 449.337 262.991C449.101 262.874 448.896 262.703 448.739 262.492L444.581 256.949C444.448 256.771 444.35 256.568 444.295 256.352C444.24 256.137 444.228 255.912 444.259 255.692C444.291 255.472 444.365 255.26 444.479 255.068C444.592 254.876 444.742 254.709 444.92 254.576C445.098 254.442 445.301 254.345 445.517 254.29C445.732 254.234 445.957 254.222 446.177 254.254C446.397 254.285 446.609 254.36 446.801 254.473C446.993 254.587 447.16 254.737 447.293 254.915L450.013 258.541L456.999 248.062C457.25 247.692 457.637 247.435 458.076 247.349C458.516 247.262 458.971 247.353 459.344 247.602C459.716 247.85 459.975 248.235 460.065 248.674C460.154 249.113 460.066 249.569 459.82 249.943L451.505 262.415C451.355 262.641 451.152 262.827 450.915 262.958C450.678 263.09 450.413 263.162 450.142 263.17L450.095 263.17Z"
      fill="#B0C0F4"/>
    <path
      d="M470.834 282.731H434.188C431.949 282.731 430.133 284.547 430.133 286.787V288.247C430.133 290.486 431.949 292.302 434.188 292.302H470.834C473.074 292.302 474.89 290.486 474.89 288.247V286.787C474.89 284.547 473.074 282.731 470.834 282.731Z"
      fill="white"/>
    <path
      d="M493.565 301.873H411.458C409.218 301.873 407.402 303.689 407.402 305.929V307.388C407.402 309.628 409.218 311.444 411.458 311.444H493.565C495.805 311.444 497.621 309.628 497.621 307.388V305.929C497.621 303.689 495.805 301.873 493.565 301.873Z"
      fill="white"/>
    <path
      d="M493.565 321.015H411.458C409.218 321.015 407.402 322.83 407.402 325.07V326.53C407.402 328.77 409.218 330.585 411.458 330.585H493.565C495.805 330.585 497.621 328.77 497.621 326.53V325.07C497.621 322.83 495.805 321.015 493.565 321.015Z"
      fill="white"/>
    <path
      d="M472.259 496.915C470.745 496.915 469.264 496.466 468.005 495.625C466.746 494.783 465.764 493.587 465.184 492.188C464.605 490.789 464.453 489.249 464.749 487.764C465.044 486.278 465.773 484.914 466.844 483.843C467.915 482.772 469.28 482.043 470.765 481.747C472.251 481.452 473.79 481.603 475.19 482.183C476.589 482.763 477.785 483.744 478.626 485.003C479.468 486.263 479.917 487.743 479.917 489.258C479.917 491.289 479.11 493.236 477.674 494.672C476.238 496.109 474.29 496.915 472.259 496.915Z"
      fill="#F8F8FF"/>
    <path
      d="M474.93 490.86L473.327 489.258L474.93 487.655C475.071 487.514 475.151 487.321 475.151 487.121C475.151 486.921 475.071 486.729 474.93 486.587C474.788 486.445 474.596 486.366 474.396 486.366C474.195 486.366 474.003 486.445 473.861 486.587L472.259 488.189L470.657 486.587C470.515 486.445 470.323 486.366 470.123 486.366C469.922 486.366 469.73 486.445 469.588 486.587C469.447 486.729 469.367 486.921 469.367 487.121C469.367 487.321 469.447 487.514 469.588 487.655L471.191 489.258L469.588 490.86C469.447 491.002 469.367 491.194 469.367 491.394C469.367 491.594 469.447 491.787 469.588 491.928C469.73 492.07 469.922 492.15 470.123 492.15C470.323 492.15 470.515 492.07 470.657 491.928L472.259 490.326L473.861 491.928C474.003 492.07 474.195 492.15 474.396 492.15C474.596 492.15 474.788 492.07 474.93 491.928C475.071 491.787 475.151 491.594 475.151 491.394C475.151 491.194 475.071 491.002 474.93 490.86Z"
      fill="#B0C0F4"/>
    <path
      d="M405.54 434.676C413.956 434.676 420.779 427.853 420.779 419.437C420.779 411.021 413.956 404.198 405.54 404.198C397.124 404.198 390.301 411.021 390.301 419.437C390.301 427.853 397.124 434.676 405.54 434.676Z"
      fill="white"/>
    <path
      d="M403.462 427.368C403.199 427.368 402.939 427.307 402.704 427.189C402.468 427.071 402.264 426.901 402.106 426.69L397.948 421.147C397.815 420.969 397.718 420.766 397.662 420.55C397.607 420.335 397.595 420.11 397.626 419.89C397.658 419.669 397.732 419.457 397.846 419.266C397.959 419.074 398.109 418.907 398.287 418.774C398.466 418.64 398.668 418.543 398.884 418.488C399.099 418.432 399.324 418.42 399.544 418.452C399.765 418.483 399.977 418.558 400.168 418.671C400.36 418.784 400.527 418.935 400.661 419.113L403.381 422.739L410.366 412.26C410.489 412.074 410.648 411.913 410.833 411.787C411.018 411.662 411.226 411.575 411.445 411.53C411.664 411.486 411.89 411.485 412.109 411.528C412.329 411.571 412.537 411.657 412.723 411.781C412.909 411.905 413.069 412.064 413.193 412.25C413.317 412.436 413.403 412.645 413.446 412.864C413.489 413.084 413.489 413.309 413.444 413.529C413.4 413.748 413.312 413.956 413.187 414.141L404.872 426.613C404.722 426.839 404.52 427.025 404.282 427.156C404.045 427.288 403.78 427.36 403.509 427.368L403.462 427.368Z"
      fill="#B0C0F4"/>
    <path
      d="M424.198 446.93H387.552C385.312 446.93 383.496 448.745 383.496 450.985V452.445C383.496 454.685 385.312 456.5 387.552 456.5H424.198C426.437 456.5 428.253 454.685 428.253 452.445V450.985C428.253 448.745 426.437 446.93 424.198 446.93Z"
      fill="white"/>
    <path
      d="M446.928 466.071H364.821C362.581 466.071 360.766 467.887 360.766 470.127V471.586C360.766 473.826 362.581 475.642 364.821 475.642H446.928C449.168 475.642 450.984 473.826 450.984 471.586V470.127C450.984 467.887 449.168 466.071 446.928 466.071Z"
      fill="white"/>
    <path
      d="M446.928 485.212H364.821C362.581 485.212 360.766 487.028 360.766 489.268V490.728C360.766 492.967 362.581 494.783 364.821 494.783H446.928C449.168 494.783 450.984 492.967 450.984 490.728V489.268C450.984 487.028 449.168 485.212 446.928 485.212Z"
      fill="white"/>
    <path
      d="M577.574 500.349C575.483 500.349 573.439 499.729 571.7 498.567C569.961 497.405 568.605 495.754 567.805 493.821C567.005 491.889 566.795 489.763 567.203 487.712C567.611 485.66 568.618 483.776 570.097 482.297C571.576 480.819 573.46 479.811 575.511 479.403C577.563 478.995 579.689 479.205 581.621 480.005C583.553 480.805 585.205 482.161 586.367 483.9C587.529 485.639 588.149 487.683 588.149 489.775C588.149 492.579 587.035 495.269 585.052 497.252C583.069 499.235 580.379 500.349 577.574 500.349Z"
      fill="white"/>
    <path
      d="M581.264 491.987L579.051 489.774L581.264 487.561C581.459 487.366 581.569 487.101 581.569 486.824C581.569 486.547 581.459 486.282 581.264 486.086C581.068 485.891 580.803 485.781 580.526 485.781C580.249 485.781 579.984 485.891 579.788 486.086L577.576 488.299L575.363 486.086C575.167 485.891 574.902 485.781 574.625 485.781C574.349 485.781 574.083 485.891 573.888 486.086C573.692 486.282 573.582 486.547 573.582 486.824C573.582 487.101 573.692 487.366 573.888 487.561L576.1 489.774L573.888 491.987C573.692 492.183 573.582 492.448 573.582 492.725C573.582 493.001 573.692 493.267 573.888 493.462C574.083 493.658 574.349 493.768 574.625 493.768C574.902 493.768 575.167 493.658 575.363 493.462L577.576 491.249L579.788 493.462C579.984 493.658 580.249 493.768 580.526 493.768C580.803 493.768 581.068 493.658 581.263 493.462C581.459 493.267 581.569 493.001 581.569 492.725C581.569 492.448 581.459 492.183 581.264 491.987Z"
      fill="#B0C0F4"/>
    <path
      d="M555.958 367.559C567.58 367.559 577.001 358.137 577.001 346.515C577.001 334.893 567.58 325.472 555.958 325.472C544.336 325.472 534.914 334.893 534.914 346.515C534.914 358.137 544.336 367.559 555.958 367.559Z"
      fill="#536DFE"/>
    <path
      d="M553.089 357.468C552.726 357.468 552.368 357.383 552.043 357.221C551.718 357.058 551.435 356.822 551.217 356.531L545.476 348.877C545.292 348.631 545.157 348.351 545.081 348.053C545.005 347.755 544.988 347.445 545.031 347.141C545.075 346.837 545.178 346.544 545.334 346.28C545.491 346.015 545.698 345.784 545.944 345.6C546.19 345.415 546.47 345.281 546.768 345.205C547.065 345.128 547.375 345.111 547.68 345.155C547.984 345.198 548.277 345.301 548.541 345.458C548.806 345.615 549.037 345.822 549.221 346.068L552.977 351.075L562.624 336.605C562.794 336.35 563.014 336.13 563.269 335.959C563.524 335.788 563.811 335.668 564.113 335.608C564.414 335.548 564.725 335.547 565.026 335.607C565.328 335.667 565.615 335.785 565.871 335.956C566.126 336.126 566.346 336.345 566.517 336.601C566.688 336.856 566.807 337.143 566.867 337.445C566.928 337.746 566.928 338.057 566.868 338.358C566.809 338.66 566.69 338.947 566.519 339.202L555.037 356.425C554.83 356.737 554.55 356.994 554.223 357.175C553.895 357.357 553.529 357.457 553.155 357.467C553.133 357.468 553.111 357.468 553.089 357.468Z"
      fill="white"/>
    <path
      d="M583.273 384.48H529.579C527.339 384.48 525.523 386.296 525.523 388.536V393.641C525.523 395.881 527.339 397.696 529.579 397.696H583.273C585.513 397.696 587.329 395.881 587.329 393.641V388.536C587.329 386.296 585.513 384.48 583.273 384.48Z"
      fill="#3F3D56" fill-opacity="0.3"/>
    <path
      d="M614.66 410.913H498.188C495.949 410.913 494.133 412.729 494.133 414.969V420.074C494.133 422.314 495.949 424.129 498.188 424.129H614.66C616.9 424.129 618.716 422.314 618.716 420.074V414.969C618.716 412.729 616.9 410.913 614.66 410.913Z"
      fill="#3F3D56" fill-opacity="0.3"/>
    <path
      d="M614.66 437.346H498.188C495.949 437.346 494.133 439.161 494.133 441.401V446.506C494.133 448.746 495.949 450.562 498.188 450.562H614.66C616.9 450.562 618.716 448.746 618.716 446.506V441.401C618.716 439.161 616.9 437.346 614.66 437.346Z"
      fill="#3F3D56" fill-opacity="0.3"/>
    <path d="M655.54 610.91L645.336 610.909L640.48 571.546L655.543 571.547L655.54 610.91Z" fill="#FFB6B6"/>
    <path
      d="M655.27 607.577L644.374 603.145L644.062 603.017L638.046 607.577C634.65 607.577 631.392 608.927 628.99 611.329C626.588 613.73 625.239 616.988 625.238 620.385V620.801H658.142V607.577H655.27Z"
      fill="#2F2E41"/>
    <path d="M741.794 602.362L732.049 605.39L715.73 569.241L730.114 564.772L741.794 602.362Z" fill="#FFB6B6"/>
    <path
      d="M740.548 599.26L728.828 598.261L728.492 598.231L724.1 604.371C720.857 605.38 718.146 607.635 716.566 610.642C714.985 613.648 714.663 617.16 715.67 620.403L715.794 620.801L747.215 611.036L743.291 598.407L740.548 599.26Z"
      fill="#2F2E41"/>
    <path
      d="M700.964 409.269L705.115 421.073V427.454L704.536 434.471L710.96 457.874L716 509.481L741.36 585.874L721.915 591.474L672.267 466.655L656.586 592.905L638.803 592.431C638.803 592.431 635.76 585.074 636.56 581.074C637.36 577.074 637.36 581.874 637.36 577.074C637.36 572.274 633.892 574.359 636.426 570.516C638.96 566.674 638.645 563.31 638.803 560.992C638.96 558.674 637.36 465.074 637.36 461.874C637.36 458.674 636.806 459.375 637.083 456.224C637.36 453.074 640.876 454.369 639.918 448.921C638.96 443.474 638.645 444.426 638.803 440.35C638.96 436.274 641.165 412.374 641.165 412.374L700.964 409.269Z"
      fill="#2F2E41"/>
    <path
      d="M634.409 413.109L670.058 378.729L679.939 350.751L665.365 344.414C657.878 351.585 649.786 373.921 649.786 373.921L625.254 405.131C625.063 405.197 624.872 405.266 624.684 405.349C623.579 405.837 622.618 406.601 621.895 407.568C621.172 408.535 620.71 409.672 620.554 410.869C620.399 412.067 620.555 413.284 621.008 414.404C621.46 415.524 622.194 416.507 623.138 417.261C624.082 418.014 625.204 418.511 626.396 418.703C627.588 418.896 628.81 418.778 629.943 418.361C631.076 417.943 632.083 417.24 632.865 416.32C633.647 415.4 634.179 414.294 634.409 413.109Z"
      fill="#FFB8B8"/>
    <path
      d="M661.266 347.538L679.753 353.407L679.822 353.395C686.703 352.242 692.413 341.004 695.991 331.78C697.168 328.737 697.146 325.361 695.929 322.334C694.712 319.307 692.392 316.854 689.436 315.473C687.249 314.468 684.825 314.096 682.437 314.397C680.049 314.698 677.793 315.661 675.924 317.178L666.431 324.935L661.266 347.538Z"
      fill="#536DFE"/>
    <path
      d="M704.106 424.433L704.214 424.29C709.982 416.64 702.093 397.696 700.9 394.949L706.263 393.36L705.329 383.148L704.878 378.595L709.048 374.635L709.062 374.534L711.93 354.125L715.683 340.618C717.097 335.511 717.127 330.12 715.769 324.998C714.411 319.876 711.715 315.208 707.957 311.473L700.287 303.857L691.097 289.472L675.688 289.074L670.147 298.917C664.995 299.969 660.374 302.795 657.091 306.903C653.807 311.011 652.069 316.14 652.179 321.398L652.7 347.602L647.172 380.068L647.017 385.966L641.59 391.692L642.593 397.481L638.534 399.098L636.548 407.325C635.789 408.274 630.78 414.605 630.735 416.37C630.728 416.635 630.917 416.897 631.329 417.192C634.571 419.511 652.693 424.538 660.849 421.516C669.537 418.3 703.586 424.34 703.929 424.401L704.106 424.433Z"
      fill="#536DFE"/>
    <path
      d="M666.332 341.366L658.461 325.674C647.037 326.454 624.362 339.664 624.362 339.664L581.461 348.76C580.19 348.271 578.813 348.126 577.468 348.339C576.124 348.552 574.859 349.115 573.801 349.972C572.743 350.83 571.929 351.95 571.442 353.222C570.955 354.493 570.812 355.871 571.026 357.215C571.241 358.56 571.806 359.824 572.664 360.881C573.523 361.938 574.645 362.75 575.917 363.235C577.189 363.721 578.566 363.863 579.911 363.646C581.255 363.43 582.518 362.864 583.574 362.004L638.147 358.092L666.332 341.366Z"
      fill="#FFB8B8"/>
    <path
      d="M663.159 343.942L683.715 328.666L687.336 315.618C688.037 313.053 688.008 310.344 687.25 307.796C686.493 305.248 685.037 302.962 683.049 301.197C680.338 298.823 676.826 297.567 673.224 297.684C669.622 297.8 666.199 299.279 663.646 301.823C655.91 309.544 647.088 320.316 648.983 327.786L649.002 327.861L663.159 343.942Z"
      fill="#536DFE"/>
    <path
      d="M683.9 285.507C693.995 285.507 702.179 277.323 702.179 267.228C702.179 257.133 693.995 248.949 683.9 248.949C673.805 248.949 665.621 257.133 665.621 267.228C665.621 277.323 673.805 285.507 683.9 285.507Z"
      fill="#FFB8B8"/>
    <path
      d="M695.929 286.345C692.872 284.909 689.301 285.782 685.925 285.915C682.55 286.047 678.461 284.775 677.744 281.474C677.215 279.033 678.806 276.358 677.804 274.07C676.71 271.576 673.427 271.221 670.794 270.523C667.494 269.569 664.584 267.589 662.486 264.869C660.388 262.149 659.211 258.831 659.127 255.398C658.944 256.76 661.276 257.208 662.042 256.066C662.808 254.924 662.281 253.343 661.436 252.258C660.591 251.173 659.451 250.306 658.814 249.088C658.177 247.869 658.301 246.059 659.545 245.472C660.182 246.759 661.085 247.896 662.194 248.808C663.303 249.72 664.593 250.387 665.978 250.764C665.413 249.046 666.212 247.114 667.5 245.843C668.868 244.652 670.444 243.723 672.149 243.105C676.362 241.278 681.282 239.461 685.362 241.568C686.416 242.123 687.33 242.908 688.037 243.865C688.745 244.823 689.227 245.928 689.447 247.097C696.995 247.736 704.745 255.912 704.316 263.474C703.853 271.616 703.516 272.274 696.738 285.974"
      fill="#2F2E41"/>
    <path
      d="M787.496 621.269H760.947L760.833 621.062C760.493 620.447 760.165 619.794 759.859 619.124C757.124 613.269 755.969 606.573 754.949 600.665L754.181 596.212C754.088 595.673 754.158 595.118 754.382 594.619C754.606 594.12 754.974 593.699 755.439 593.41C755.904 593.121 756.444 592.977 756.991 592.997C757.538 593.018 758.066 593.2 758.509 593.523C762.544 596.458 766.58 599.392 770.618 602.322C772.147 603.434 773.893 604.722 775.565 606.113C775.726 605.33 775.895 604.544 776.064 603.769C776.18 603.233 776.454 602.745 776.849 602.366C777.244 601.988 777.744 601.735 778.284 601.642C778.823 601.549 779.378 601.619 779.878 601.843C780.378 602.067 780.799 602.435 781.088 602.9L784.195 607.89C786.46 611.535 788.46 615.126 788.053 619C788.054 619.047 788.051 619.094 788.042 619.14C787.96 619.777 787.809 620.402 787.591 621.005L787.496 621.269Z"
      fill="#F0F0F0"/>
    <path
      d="M814.144 621.844L561.858 622.089C561.606 622.088 561.365 621.987 561.188 621.809C561.01 621.63 560.91 621.389 560.91 621.137C560.91 620.885 561.01 620.644 561.188 620.465C561.365 620.287 561.606 620.186 561.858 620.184L814.144 619.938C814.396 619.94 814.637 620.041 814.814 620.219C814.992 620.398 815.092 620.639 815.092 620.891C815.092 621.143 814.992 621.384 814.814 621.563C814.637 621.741 814.396 621.842 814.144 621.844Z"
      fill="#CACACA"/>
  </g>
  <defs>
    <linearGradient id="paint0_linear_10145_4898" x1="290.161" y1="261.132" x2="286.492" y2="615.718"
                    gradientUnits="userSpaceOnUse">
      <stop offset="0.03" stop-color="white"/>
      <stop offset="1" stop-color="white" stop-opacity="0"/>
    </linearGradient>
    <clipPath id="clip0_10145_4898">
      <rect width="800" height="698.797" fill="white" transform="translate(179 51)"/>
    </clipPath>
    <clipPath id="clip1_10145_4898">
      <rect width="520.091" height="382.089" fill="white" transform="translate(295 240)"/>
    </clipPath>
  </defs>
</svg>
