<svg width="1100" height="800" viewBox="0 0 1100 800" fill="none" xmlns="http://www.w3.org/2000/svg">
<path d="M0 192C0 85.9613 85.9613 0 192 0H1080.8C1091.4 0 1100 8.59613 1100 19.2V780.8C1100 791.404 1091.4 800 1080.8 800H19.2C8.59609 800 0 791.404 0 780.8V192Z" fill="#375DDB"/>
<path d="M174.655 370.782C162.848 349.106 159.518 323.817 165.311 299.824C181.728 231.957 228.33 36.6341 351.669 53.5C522.8 76.9248 633.5 115 753 86C826.5 86 932.967 128.268 971 178C994.054 208.146 973.344 330.087 923.612 376.937C873.879 423.787 947.687 516.412 949.939 565.637C952.19 614.862 881.193 621.193 791.964 622.689C702.735 624.186 184.116 607.144 184.116 607.144C184.116 607.144 117.629 492.473 170.289 451.513C202.875 426.181 188.287 395.82 174.655 370.782Z" fill="#F8F8FF"/>
<path d="M226.534 553.508C215.121 553.111 172.365 558.948 169.859 561.186C169.209 561.792 159.858 589.596 201.001 625.533C266.825 683.028 458.59 689.99 516 668.121C608.5 694.5 675.927 690.895 865.108 668.121C925.564 660.846 965.965 568.24 938.48 556.235C922.024 549.077 902.321 568.071 885.774 559.735C866.728 550.125 828.136 544.119 804.243 551.491C803.781 551.616 803.385 551.915 803.14 552.326C802.894 552.736 802.817 553.226 802.924 553.692C803.032 554.158 803.317 554.564 803.718 554.825C804.119 555.085 804.606 555.18 805.076 555.089L792.491 559.104C778.508 569.515 781.657 555.682 748.856 553.899L652.144 551.511C617.566 552.552 484.52 558.401 432.465 556.319H403.834C384.73 553.931 335.174 552.799 333.391 552.741L226.534 553.508Z" fill="#F5F5FC"/>
<g clip-path="url(#clip0_11802_6963)">
<path d="M766.075 513.672L766.044 515.708H516.098V513.672H766.075Z" fill="#BAC6F2"/>
<path d="M766.573 470.42L766.553 472.456H516.098V470.42H766.573Z" fill="#BAC6F2"/>
<path d="M767.082 427.168L767.062 429.203H516.098V427.168H767.082Z" fill="#BAC6F2"/>
<path d="M765.518 560.893L765.497 562.929H510.523V349.314L512.559 349.334V477.167C512.559 490.255 515.561 502.64 520.914 513.672C521.25 514.354 521.586 515.036 521.942 515.708C535.884 542.554 563.953 560.893 596.295 560.893H765.518Z" fill="#BAC6F2"/>
<path d="M411.929 667.09C387.512 666.776 367.957 646.759 368.214 622.341C310.063 429.511 306.421 292.382 374.986 98.9203C375.123 91.2211 377.292 83.6951 381.272 77.1035L372.661 77.0025C348.244 76.745 328.226 96.3003 327.912 120.717C259.347 314.179 262.989 451.307 321.14 644.138C320.882 668.555 340.438 688.573 364.855 688.886L802.425 694.001C818.247 694.133 832.926 685.776 840.889 672.104L411.929 667.09Z" fill="#BAC6F2"/>
<path d="M477.033 436.49C477.731 440.871 474.159 444.956 469.725 444.829L455.008 477.999L444.832 476.184L462.6 436.916C462.89 433.646 465.375 430.875 468.765 430.369C472.739 429.776 476.44 432.517 477.033 436.49Z" fill="#FFB6B6"/>
<path d="M397.386 538.397C401.586 542.742 408.39 543.209 413.144 539.479L447.965 512.165L465.217 458.515L452.674 452.713L429.108 499.713L399.14 520.511C393.166 524.657 392.331 533.169 397.386 538.397Z" fill="#6C63FF"/>
<path d="M404.957 519.768C404.052 519.148 403.085 518.598 402.088 518.13C402.108 517.865 402.118 517.59 402.118 517.326C402.169 514.649 401.64 511.973 400.561 509.52C400.704 511.678 400.042 513.876 398.739 515.596C398.515 515.901 398.271 516.186 398.007 516.461C397.935 516.532 397.864 516.603 397.793 516.664C396.358 516.339 394.872 516.186 393.396 516.206C391.758 516.237 390.13 516.461 388.511 516.776C386.486 517.163 384.471 517.702 382.456 518.15C382.334 518.181 382.222 518.201 382.1 518.232C381.174 515.718 379.719 513.418 377.826 511.525C378.731 513.479 378.915 515.769 378.324 517.845C378.223 518.211 378.1 518.567 377.948 518.913C375.75 519.137 373.551 519.076 371.445 518.466C370.549 518.211 369.704 517.865 368.88 517.458C365.969 516.033 363.344 513.917 360.342 512.644C358.723 511.952 357.014 511.525 355.263 511.352C353.798 502.956 354.205 495.506 358.703 490.123C358.703 477.839 368.666 467.876 380.95 467.876L391.147 471.418L401.446 475C406.291 487.925 413.995 499.302 404.957 519.768Z" fill="#2F2E41"/>
<path d="M421.375 752.46L428.35 755.768L444.714 729.838L434.419 724.956L421.375 752.46Z" fill="#FFB6B6"/>
<path d="M438.144 771.088L430.696 758.185L433.063 753.194L430.599 752.197L422.956 749.123L421.085 748.365L411.254 765.298L416.489 767.776L419.764 763.28L419.807 769.353L433.675 775.931C435.399 776.747 437.459 776.008 438.273 774.29C438.758 773.267 438.71 772.07 438.144 771.088Z" fill="#2F2E41"/>
<path d="M524.388 653.701L529.952 648.35L511.497 623.864L503.285 631.762L524.388 653.701Z" fill="#FFB6B6"/>
<path d="M547.745 644.615L533.041 647.011L529.211 643.03L527.407 644.981L521.825 651.04L520.453 652.522L532.807 667.712L536.978 663.694L533.934 659.039L539.629 661.15L550.692 650.51C552.065 649.187 552.103 646.998 550.786 645.629C550 644.812 548.865 644.434 547.745 644.615Z" fill="#2F2E41"/>
<path d="M406.533 609.336L379.055 603.229L379.239 611.59C379.239 611.59 350.559 633.76 377.02 655.132C403.48 676.504 448.258 678.539 448.258 678.539L427.904 737.566L438.081 741.636L478.151 686.917C483.546 677.106 482.021 664.745 473.984 656.951C472.429 655.443 470.648 654.114 468.612 653.097C456.4 646.99 423.834 634.778 423.834 634.778L407.55 618.495L406.533 609.336Z" fill="#2F2E41"/>
<path d="M405.516 624.601L461.953 588.686C468.286 584.656 476.534 585.371 482.08 590.43L524.586 636.813L513.392 645.973L469.631 615.442C469.631 615.442 444.188 643.937 437.064 643.937C429.94 643.937 405.516 624.601 405.516 624.601Z" fill="#2F2E41"/>
<path d="M374.984 627.502C374.984 627.502 357.651 617.678 365.808 609.36C373.966 601.042 374.984 574.742 374.984 574.742L361.754 534.892L371.931 527.768L374.984 515.708L393.303 514.69V523.697L411.653 544.013C417.889 550.918 419.773 560.715 416.541 569.439L411.621 582.723C411.621 582.723 425.869 620.378 413.656 625.467C401.444 630.555 374.984 627.502 374.984 627.502Z" fill="#6C63FF"/>
<path d="M466.657 481.74L418.523 438.785C411.252 432.338 410.585 421.217 417.032 413.946C423.479 406.676 434.6 406.008 441.87 412.455L441.953 412.529L490.087 455.484C497.317 461.977 497.914 473.102 491.421 480.331C484.957 487.529 473.895 488.158 466.657 481.74Z" fill="#BAC6F2"/>
<path d="M388.465 511.319C398.571 511.319 406.763 503.127 406.763 493.022C406.763 482.916 398.571 474.724 388.465 474.724C378.36 474.724 370.168 482.916 370.168 493.022C370.168 503.127 378.36 511.319 388.465 511.319Z" fill="#FFB6B6"/>
<path d="M397.996 489.247C397.864 487.12 397.345 485.014 396.49 483.06C396.632 485.217 395.971 487.415 394.668 489.135C394.637 489.176 394.607 489.207 394.587 489.247C391.223 490.881 385.552 489.957 380.074 489.247V468.893H391.269C402.26 465.189 411.307 473.249 411.623 489.247C406.35 490.202 401.407 490.725 397.996 489.247Z" fill="#2F2E41"/>
<path d="M388.51 516.776C386.485 517.163 384.47 517.702 382.455 518.15C382.333 518.181 382.221 518.201 382.099 518.231C381.173 515.718 379.717 513.418 377.824 511.525C378.73 513.479 378.913 515.769 378.323 517.845C378.221 518.211 378.099 518.567 377.947 518.913C375.748 519.137 373.55 519.076 371.444 518.465C370.548 518.211 369.703 517.865 368.879 517.458V473.982H390.251C381.956 488.108 380.776 502.355 388.51 516.776Z" fill="#2F2E41"/>
<path d="M384.47 465.894C384.079 464.671 382.59 464.088 381.322 464.285C380.053 464.482 378.96 465.256 377.92 466.008C378.933 464.905 378.418 462.96 377.178 462.12C375.937 461.28 374.28 461.338 372.848 461.779C371.416 462.219 370.113 462.995 368.714 463.532C367.316 464.068 365.722 464.353 364.337 463.783C364.876 465.479 365.918 467.011 367.298 468.136C365.666 467.85 363.898 468.696 363.096 470.145C362.295 471.595 362.518 473.542 363.627 474.773C364.899 476.185 367.052 476.516 368.901 476.073C370.75 475.629 372.368 474.539 373.927 473.451C375.486 472.362 377.068 471.235 378.892 470.699L372.897 474.471C375.959 473.195 378.93 471.7 381.779 470.002C382.541 469.548 383.31 469.066 383.867 468.375C384.424 467.685 384.74 466.739 384.47 465.894Z" fill="#2F2E41"/>
<path d="M356.218 648.713C356.08 644.194 360.125 640.988 364.26 640.159C369.514 639.106 374.878 641.816 379.33 644.278C387.285 648.677 396.515 644.315 405.016 649.656C417.564 657.54 420.156 645.73 419.366 631.787C418.783 621.504 421.273 611.405 421.804 601.288C422.315 591.546 424.968 581.648 433.227 575.596C436.694 573.056 441.013 571.552 445.318 572.444C449.916 573.396 453.589 576.701 458.02 578.139C466.265 580.817 474.937 577.204 481.12 571.695C488.312 565.288 491.824 556.276 494.295 547.187C496.858 537.763 498.423 527.896 503.121 519.215C507.13 511.807 513.428 504.97 522.107 503.557C530.612 502.173 538.76 506.342 546.1 510.075C553.655 513.918 561.464 518.082 570.119 518.44C588.667 519.208 602.994 503.428 611.032 488.424C620.206 471.298 625.526 450.518 641.825 438.411C648.831 433.207 657.721 429.573 666.572 431.032C675.518 432.505 682.053 438.994 687.994 445.336C694.079 451.832 700.121 458.231 708.366 461.972C716.457 465.644 725.497 467.019 734.31 465.856C738.567 465.294 742.64 464.128 746.578 462.427C748.376 461.65 746.823 459.019 745.037 459.791C736.4 463.522 726.568 464.168 717.457 461.923C708.301 459.667 701.006 454.546 694.541 447.842C688.622 441.704 683.058 434.716 675.316 430.772C667.484 426.782 658.504 426.884 650.421 430.103C642.225 433.367 635.125 439.14 629.741 446.082C623.487 454.145 619.327 463.596 615.147 472.833C607.59 489.529 597.903 509.246 578.571 514.435C560.266 519.349 546.722 503.151 529.648 500.58C521.254 499.316 513.31 502.222 507.366 508.218C501.212 514.425 497.654 522.634 495.304 530.928C492.425 541.089 490.942 551.973 485.654 561.278C481.474 568.632 473.732 575.454 464.935 575.963C459.896 576.255 456.037 573.93 451.729 571.684C447.846 569.658 443.791 568.616 439.427 569.468C431.252 571.063 424.901 578.286 421.78 585.65C414.08 603.815 424.683 627.156 409.609 642.688C406.854 645.527 403.321 647.662 399.331 648.096C393.986 648.678 388.988 646.19 384.456 643.665C376.63 639.305 366.72 633.475 358.142 639.527C355.098 641.674 353.049 644.915 353.165 648.713C353.225 650.673 356.278 650.682 356.218 648.713Z" fill="#3F3D56"/>
<path d="M660.956 437.345C666.015 437.345 670.115 433.244 670.115 428.186C670.115 423.127 666.015 419.026 660.956 419.026C655.898 419.026 651.797 423.127 651.797 428.186C651.797 433.244 655.898 437.345 660.956 437.345Z" fill="#6C63FF"/>
<path d="M575.472 523.849C580.53 523.849 584.631 519.749 584.631 514.69C584.631 509.632 580.53 505.531 575.472 505.531C570.413 505.531 566.312 509.632 566.312 514.69C566.312 519.749 570.413 523.849 575.472 523.849Z" fill="#6C63FF"/>
<path d="M523.246 237.782C528.863 226.125 543.436 219.633 555.858 223.253C562.856 225.292 568.726 229.978 575.161 233.402C581.595 236.826 589.578 238.953 596.051 235.601C607.177 229.84 606.499 212.639 616.176 204.681C622.617 199.385 632.068 199.632 640.029 202.116C647.99 204.599 655.271 208.983 663.283 211.294C678.194 215.595 695.15 211.978 707.008 201.967C707.126 201.867 707.243 201.766 707.359 201.665C713.229 196.493 722.429 200.755 722.214 208.576L720.712 263.118H524.297L523.246 237.782Z" fill="#BAC6F2"/>
<path d="M695.623 227.954C696.27 227.691 696.27 226.784 695.622 226.522C691.107 224.69 686.05 222.082 682.186 219.246C681.567 218.792 680.74 219.418 681.001 220.139L683.201 226.22H645.562V228.255H683.201L681.001 234.337C680.74 235.059 681.567 235.685 682.185 235.231C686.05 232.394 691.107 229.786 695.623 227.954Z" fill="#3F3D56"/>
<path d="M610.95 218.15C611.306 217.55 610.757 216.828 610.083 217.011C605.38 218.287 599.777 219.273 594.984 219.356C594.216 219.369 593.937 220.368 594.582 220.784L600.014 224.291L570.059 247.08L571.291 248.7L601.246 225.911L603.178 232.084C603.407 232.817 604.444 232.814 604.662 232.078C606.02 227.481 608.466 222.343 610.95 218.15Z" fill="#3F3D56"/>
<path d="M713.946 215.264C723.582 215.264 731.393 207.453 731.393 197.817C731.393 188.182 723.582 180.371 713.946 180.371C704.311 180.371 696.5 188.182 696.5 197.817C696.5 207.453 704.311 215.264 713.946 215.264Z" fill="#6C63FF"/>
<path d="M628.454 215.264C638.089 215.264 645.9 207.453 645.9 197.817C645.9 188.182 638.089 180.371 628.454 180.371C618.819 180.371 611.008 188.182 611.008 197.817C611.008 207.453 618.819 215.264 628.454 215.264Z" fill="#9790FF"/>
<path d="M551.11 231.547C560.746 231.547 568.557 223.736 568.557 214.101C568.557 204.465 560.746 196.654 551.11 196.654C541.475 196.654 533.664 204.465 533.664 214.101C533.664 223.736 541.475 231.547 551.11 231.547Z" fill="#D5D3FF"/>
<path d="M762.756 297.917L492.055 295.977C483.354 295.915 476.231 302.937 476.168 311.638C476.106 320.339 483.128 327.462 491.829 327.525L762.53 329.465C771.231 329.527 778.354 322.505 778.417 313.804C778.479 305.103 771.457 297.979 762.756 297.917Z" fill="#BAC6F2"/>
<path d="M451.616 315.582C455.55 315.582 458.74 312.392 458.74 308.458C458.74 304.523 455.55 301.334 451.616 301.334C447.682 301.334 444.492 304.523 444.492 308.458C444.492 312.392 447.682 315.582 451.616 315.582Z" fill="#BAC6F2"/>
<path d="M762.756 122.873L492.055 120.933C483.354 120.87 476.231 127.892 476.168 136.593C476.106 145.294 483.128 152.418 491.829 152.48L762.53 154.421C771.231 154.483 778.354 147.461 778.417 138.76C778.479 130.059 771.457 122.935 762.756 122.873Z" fill="#BAC6F2"/>
<path d="M451.616 140.537C455.55 140.537 458.74 137.348 458.74 133.413C458.74 129.479 455.55 126.29 451.616 126.29C447.682 126.29 444.492 129.479 444.492 133.413C444.492 137.348 447.682 140.537 451.616 140.537Z" fill="#BAC6F2"/>
<path d="M423.668 703.548H379.333C375.606 703.548 372.574 700.516 372.574 696.789V652.454C372.574 648.727 375.606 645.695 379.333 645.695H423.668C427.395 645.695 430.427 648.727 430.427 652.454V696.789C430.427 700.516 427.395 703.548 423.668 703.548Z" fill="white"/>
<path d="M423.668 703.548H379.333C375.606 703.548 372.574 700.516 372.574 696.789V652.454C372.574 648.727 375.606 645.695 379.333 645.695H423.668C427.395 645.695 430.427 648.727 430.427 652.454V696.789C430.427 700.516 427.395 703.548 423.668 703.548ZM379.333 646.777C376.197 646.777 373.656 649.318 373.656 652.454V696.789C373.656 699.925 376.197 702.467 379.333 702.467H410.929C421.1 702.467 429.345 694.221 429.345 684.05V652.454C429.345 649.318 426.804 646.777 423.668 646.777H379.333Z" fill="#E6E6E6"/>
<path d="M748.951 658.599C751.053 658.731 752.215 656.119 750.624 654.596L750.466 653.967C750.487 653.917 750.508 653.866 750.529 653.816C752.655 648.746 759.861 648.781 761.969 653.859C763.841 658.365 766.223 662.879 766.809 667.644C767.072 669.748 766.954 671.89 766.487 673.954C770.872 664.377 773.179 653.919 773.179 643.402C773.179 640.76 773.034 638.117 772.738 635.482C772.495 633.326 772.16 631.183 771.726 629.06C769.38 617.583 764.298 606.652 756.969 597.522C753.446 595.596 750.508 592.585 748.733 588.976C748.096 587.675 747.596 586.275 747.359 584.849C747.76 584.901 748.871 578.795 748.569 578.42C749.128 577.572 750.128 577.151 750.738 576.323C753.773 572.208 757.955 572.927 760.138 578.519C764.801 580.872 764.846 584.775 761.985 588.529C760.164 590.918 759.914 594.15 758.317 596.706C758.481 596.917 758.652 597.121 758.816 597.331C761.83 601.196 764.436 605.35 766.633 609.715C766.012 604.864 766.929 599.021 768.492 595.254C770.271 590.962 773.606 587.347 776.543 583.637C780.07 579.18 787.303 581.125 787.925 586.775C787.931 586.829 787.936 586.884 787.942 586.939C787.506 587.185 787.079 587.446 786.661 587.722C784.28 589.297 785.103 592.988 787.924 593.423L787.988 593.433C787.83 595.004 787.561 596.562 787.167 598.093C790.934 612.663 782.8 617.969 771.187 618.207C770.931 618.339 770.681 618.47 770.425 618.595C771.601 621.908 772.541 625.306 773.238 628.751C773.862 631.794 774.296 634.87 774.539 637.96C774.842 641.858 774.816 645.775 774.487 649.667L774.507 649.529C775.341 645.243 777.668 641.24 781.047 638.466C786.08 634.331 793.191 632.809 798.621 629.485C801.235 627.886 804.584 629.953 804.128 632.983L804.106 633.128C803.297 633.457 802.508 633.838 801.746 634.266C801.31 634.512 800.882 634.773 800.465 635.049C798.084 636.624 798.907 640.315 801.728 640.75L801.792 640.76C801.838 640.766 801.877 640.773 801.923 640.78C800.536 644.073 798.604 647.129 796.185 649.765C793.829 662.483 783.712 663.69 772.89 659.986H772.883C771.7 665.14 769.971 670.175 767.749 674.973H749.41C749.344 674.77 749.285 674.559 749.226 674.355C750.922 674.461 752.631 674.362 754.301 674.053C752.94 672.383 751.579 670.701 750.219 669.031C750.186 668.998 750.16 668.965 750.133 668.933C749.443 668.078 748.746 667.23 748.056 666.376L748.056 666.375C748.013 663.751 748.328 661.137 748.951 658.599Z" fill="#BAC6F2"/>
<path d="M381.709 652.554C378.038 650.062 377.508 644.662 380.637 641.517L366.547 608.076L374.838 601.905L391.284 641.746C393.467 644.197 393.785 647.905 391.831 650.721C389.542 654.023 385.01 654.843 381.709 652.554Z" fill="#FFB6B6"/>
<path d="M371.337 530.839C365.315 530.337 359.888 534.467 358.768 540.405L350.562 583.893L376.005 635.796L389.235 629.69L372.952 580.84L381.799 545.452C383.563 538.397 378.584 531.443 371.337 530.839Z" fill="#6C63FF"/>
<path d="M383.101 662.097C382.259 662.097 381.574 662.781 381.574 663.623V664.641C381.574 665.483 382.259 666.167 383.101 666.167H418.72C419.562 666.167 420.247 665.483 420.247 664.641V663.623C420.247 662.781 419.562 662.097 418.72 662.097H383.101Z" fill="#E6E6E6"/>
<path d="M383.101 673.292C382.259 673.292 381.574 673.976 381.574 674.818V675.836C381.574 676.678 382.259 677.362 383.101 677.362H418.72C419.562 677.362 420.247 676.678 420.247 675.836V674.818C420.247 673.976 419.562 673.292 418.72 673.292H383.101Z" fill="#E6E6E6"/>
<path d="M383.101 684.486C382.259 684.486 381.574 685.171 381.574 686.012V687.03C381.574 687.872 382.259 688.557 383.101 688.557H418.72C419.562 688.557 420.247 687.872 420.247 687.03V686.012C420.247 685.171 419.562 684.486 418.72 684.486H383.101Z" fill="#E6E6E6"/>
</g>
<path d="M451.072 367.6H434.224L431.632 373.888H443.488L442.336 370.48H447.904L450.928 379.168H445.312L445.072 378.496H444.304V387.76C444.304 388.208 444.448 388.576 444.736 388.864C445.024 389.152 445.392 389.296 445.84 389.296H450.544L448.432 394.048H442.576C441.36 394.048 440.336 393.632 439.504 392.8C438.672 391.936 438.256 390.896 438.256 389.68V378.496H433.792L430.816 394.048H424.48L427.456 378.496H422.56L427.216 367.6H424.144V362.848H434.608L433.024 359.344H440.608L442.144 362.848H451.072V367.6ZM408.928 387.376L414.592 375.472H408.928L416.032 360.064H423.472L417.952 371.152H419.056H422.752L417.376 383.008H422.752V387.376H408.928ZM408.928 389.68H422.752V394.048H408.928V389.68ZM488.08 368.608H498.976V373.312H488.08V393.952H481.504V373.312H470.656V368.608H481.504V359.44H488.08V368.608ZM460.432 367.168L456.976 359.44H464.8L468.256 367.168H460.432ZM456.976 369.904H459.76H466.24H466.336V388.336C466.336 388.752 466.48 389.104 466.768 389.392C467.056 389.68 467.408 389.824 467.824 389.824H470.656L468.832 393.952H464.992C464.256 393.952 463.568 393.824 462.928 393.568C462.32 393.28 461.776 392.896 461.296 392.416C460.816 391.936 460.432 391.392 460.144 390.784C459.888 390.144 459.76 389.456 459.76 388.72V374.608H456.976V369.904ZM529.648 372.448H546.448V377.104C546.448 378.768 546.112 380.448 545.44 382.144C545.056 382.944 544.64 383.728 544.192 384.496C543.776 385.232 543.264 385.952 542.656 386.656C542.944 386.784 543.232 386.928 543.52 387.088C543.808 387.216 544.112 387.328 544.432 387.424L545.392 387.808C545.712 387.936 546.064 388.048 546.448 388.144V393.808C543.44 393.232 540.752 392.144 538.384 390.544C535.984 392.144 533.296 393.232 530.32 393.808V388.144C530.704 388.048 531.056 387.936 531.376 387.808C531.728 387.68 532.048 387.552 532.336 387.424C532.656 387.328 532.96 387.216 533.248 387.088C533.568 386.928 533.856 386.784 534.112 386.656C533.12 385.44 532.304 384.128 531.664 382.72C531.088 381.376 530.656 379.904 530.368 378.304H536.128C536.416 379.232 536.736 380.112 537.088 380.944C537.472 381.744 537.904 382.464 538.384 383.104C538.672 382.72 538.944 382.304 539.2 381.856C539.456 381.408 539.68 380.944 539.872 380.464C540.096 379.984 540.272 379.456 540.4 378.88C540.56 378.304 540.736 377.712 540.928 377.104H529.648V388.672L528.064 393.808H521.44L522.976 388.48V373.072L518.464 378.976V389.008C518.464 389.712 518.32 390.4 518.032 391.072C517.872 391.36 517.696 391.648 517.504 391.936C517.344 392.224 517.136 392.48 516.88 392.704C516.336 393.216 515.776 393.6 515.2 393.856C514.464 394.112 513.792 394.24 513.184 394.24H507.568L509.392 390.112H510.208C510.592 390.112 510.96 389.968 511.312 389.68C511.6 389.36 511.744 389.008 511.744 388.624V385.744H505.504L511.744 377.824V366.88H506.656V362.128H511.744V359.152H518.464V362.128H522.976V359.152H546.4V365.968C546.4 366.8 546.256 367.488 545.968 368.032C545.744 368.576 545.392 369.136 544.912 369.712C544.624 369.936 544.352 370.144 544.096 370.336C543.84 370.496 543.536 370.64 543.184 370.768C542.64 371.056 541.968 371.2 541.168 371.2H532.864L533.728 366.976H538.288C538.704 366.976 539.04 366.832 539.296 366.544C539.616 366.224 539.776 365.872 539.776 365.488V363.952H529.648V372.448ZM518.464 371.056H522.976V366.88H518.464V371.056ZM577.312 360.976H595.072V364.672H577.312V366.736H592.912V370.384H577.312V372.64H595.072V376.336H574.672L567.088 381.712H567.424V387.808C567.424 388.224 567.568 388.576 567.856 388.864C568.144 389.152 568.496 389.296 568.912 389.296H575.2L572.56 394.048H565.504C564.768 394.048 564.08 393.92 563.44 393.664C562.8 393.376 562.24 392.992 561.76 392.512C561.28 392.032 560.896 391.488 560.608 390.88C560.352 390.24 560.224 389.552 560.224 388.816V385.312H552.88L564.832 376.336H552.88V372.64H570.64V370.384H555.04V366.736H570.64V364.672H552.88V360.976H570.64V359.392H577.312V360.976ZM588.592 387.328L595.072 394.048H586.48L572.416 379.36H581.008L584.608 383.104L587.248 379.504H593.92L588.592 387.328ZM607.312 394H601.072L604.624 384.88H610.912L607.312 394ZM639.52 384.88L643.072 394H636.784L633.232 384.88H639.52ZM600.928 361.696L643.072 359.392V364.816L625.072 365.824L618.592 370.048H620.608H622.576H630.784L618.592 377.968H632.752L630.16 374.224H637.072L643.072 382.864H640.144H636.16H627.136V388.768C627.136 389.504 626.992 390.192 626.704 390.832C626.416 391.472 626.032 392.032 625.552 392.512C625.072 392.992 624.512 393.376 623.872 393.664C623.232 393.92 622.56 394.048 621.856 394.048H612.208L614.848 389.152H618.016C618.432 389.152 618.784 389.008 619.072 388.72C619.36 388.432 619.504 388.064 619.504 387.616V382.864H611.056H601.072H600.928L613.12 374.944H611.056H603.232H600.928L613.984 366.4L600.928 367.12V361.696ZM691.072 367.6H674.224L671.632 373.888H683.488L682.336 370.48H687.904L690.928 379.168H685.312L685.072 378.496H684.304V387.76C684.304 388.208 684.448 388.576 684.736 388.864C685.024 389.152 685.392 389.296 685.84 389.296H690.544L688.432 394.048H682.576C681.36 394.048 680.336 393.632 679.504 392.8C678.672 391.936 678.256 390.896 678.256 389.68V378.496H673.792L670.816 394.048H664.48L667.456 378.496H662.56L667.216 367.6H664.144V362.848H674.608L673.024 359.344H680.608L682.144 362.848H691.072V367.6ZM648.928 387.376L654.592 375.472H648.928L656.032 360.064H663.472L657.952 371.152H659.056H662.752L657.376 383.008H662.752V387.376H648.928ZM648.928 389.68H662.752V394.048H648.928V389.68Z" fill="#2F2E41"/>
<defs>
<clipPath id="clip0_11802_6963">
<rect width="580" height="699.264" fill="white" transform="translate(277 77)"/>
</clipPath>
</defs>
</svg>
